<?xml version="1.0" encoding="utf-8"?>
<!-- Generator: Adobe Illustrator 16.0.0, SVG Export Plug-In . SVG Version: 6.00 Build 0)  -->
<!DOCTYPE svg PUBLIC "-//W3C//DTD SVG 1.0//EN" "http://www.w3.org/TR/2001/REC-SVG-20010904/DTD/svg10.dtd">
<svg version="1.0" id="图层_1" xmlns="http://www.w3.org/2000/svg" xmlns:xlink="http://www.w3.org/1999/xlink" x="0px" y="0px"
	 width="340.157px" height="141.732px" viewBox="0 0 340.157 141.732" enable-background="new 0 0 340.157 141.732"
	 xml:space="preserve">
<g>
	<g enable-background="new    ">
		<path fill="#FFFFFF" d="M121.57,70.965h5.25v13.734c-1.905,0.729-3.822,1.05-5.754,0.966c-1.932-0.084-3.759-0.511-5.481-1.281
			c-1.722-0.77-3.262-1.848-4.62-3.233c-1.359-1.387-2.401-3.031-3.129-4.936c-0.728-1.875-1.05-3.772-0.966-5.69
			s0.49-3.724,1.218-5.418s1.771-3.22,3.129-4.578c1.357-1.358,2.961-2.415,4.809-3.171c1.792-0.729,3.654-1.093,5.586-1.093
			c1.848,0,3.667,0.351,5.46,1.051c0.084,0.056,0.105,0.126,0.063,0.21s-0.105,0.098-0.189,0.042
			c-1.68-0.672-3.458-1.009-5.334-1.009c-1.148,0-2.241,0.126-3.276,0.379c-0.392,0.084-0.721,0.287-0.987,0.608
			c-0.267,0.322-0.399,0.693-0.399,1.113c0,0.28,0.042,0.504,0.126,0.672L121.57,70.965z"/>
		<path fill="#FFFFFF" d="M130.558,85.665v-29.4h7.98v29.4H130.558z"/>
		<path fill="#FFFFFF" d="M156.682,57.819c-0.729-0.392-1.52-0.7-2.373-0.924c-0.854-0.225-1.743-0.337-2.667-0.337
			c-1.064,0-2.086,0.147-3.066,0.441c-0.98,0.294-1.876,0.722-2.688,1.281c-0.504,0.364-0.756,0.854-0.756,1.47
			c0,0.616,0.224,1.078,0.672,1.386l12.18,9.198c1.092,0.84,1.938,1.834,2.541,2.982c0.602,1.148,0.903,2.366,0.903,3.653
			c0,1.177-0.245,2.297-0.735,3.36c-0.49,1.064-1.197,2.002-2.121,2.814c-0.924,0.812-1.974,1.435-3.15,1.868
			c-1.176,0.435-2.422,0.651-3.738,0.651c-1.316,0-2.569-0.217-3.759-0.651c-1.19-0.434-2.247-1.057-3.171-1.868
			c-0.813-0.729-1.456-1.555-1.932-2.479s-0.771-1.89-0.882-2.898c0-0.084,0.035-0.14,0.105-0.168
			c0.07-0.027,0.133,0.015,0.189,0.126c0.112,1.064,0.434,2.065,0.966,3.004s1.218,1.75,2.058,2.436
			c0.84,0.687,1.813,1.226,2.919,1.617c1.106,0.393,2.275,0.588,3.507,0.588c1.063,0,2.093-0.153,3.087-0.462
			c0.994-0.308,1.896-0.742,2.709-1.302c0.504-0.309,0.756-0.784,0.756-1.429c0-0.56-0.238-1.035-0.714-1.428l-12.264-9.24
			c-1.064-0.84-1.89-1.833-2.478-2.981c-0.588-1.148-0.882-2.353-0.882-3.612c0-1.176,0.245-2.289,0.735-3.339
			c0.49-1.05,1.197-1.98,2.121-2.793c0.924-0.812,1.974-1.435,3.15-1.869c1.176-0.434,2.422-0.651,3.738-0.651
			c1.875,0,3.598,0.435,5.166,1.303c0.084,0.056,0.111,0.126,0.084,0.21C156.863,57.861,156.793,57.875,156.682,57.819z"/>
		<path fill="#FFFFFF" d="M172.768,71.175v12.391c0,0.476,0.174,0.889,0.524,1.238c0.351,0.351,0.777,0.525,1.281,0.525h4.493
			c0.084,0,0.127,0.057,0.127,0.168c0,0.112-0.043,0.168-0.127,0.168h-14.279v-29.4h14.279c0.084,0,0.127,0.057,0.127,0.168
			c0,0.112-0.043,0.168-0.127,0.168h-4.493c-0.504,0-0.931,0.176-1.281,0.525c-0.351,0.351-0.524,0.764-0.524,1.239v12.474h6.299
			c0.084,0,0.127,0.057,0.127,0.168c0,0.112-0.043,0.168-0.127,0.168H172.768z"/>
		<path fill="#FFFFFF" d="M197.084,72.981c1.428-0.729,2.576-1.778,3.444-3.15c0.868-1.371,1.302-2.898,1.302-4.578
			c0-1.203-0.23-2.331-0.693-3.381c-0.461-1.05-1.085-1.967-1.869-2.751c-0.783-0.783-1.7-1.407-2.75-1.869
			c-1.051-0.462-2.178-0.693-3.381-0.693h-0.799c-0.504,0-0.931,0.176-1.281,0.525c-0.35,0.351-0.524,0.764-0.524,1.239v27.342
			h-7.979v-29.4h10.584c1.231,0,2.394,0.238,3.485,0.715c1.093,0.476,2.044,1.12,2.856,1.932c0.812,0.813,1.455,1.764,1.932,2.855
			c0.477,1.093,0.714,2.255,0.714,3.486c0,1.68-0.427,3.221-1.28,4.62c-0.855,1.4-1.982,2.478-3.381,3.234l4.745,12.348
			c0.056,0.112,0.028,0.183-0.084,0.21s-0.183,0-0.21-0.084L197.084,72.981z"/>
		<path fill="#FFFFFF" d="M213.59,81.675c0,0.561-0.104,1.078-0.314,1.555c-0.21,0.476-0.49,0.896-0.84,1.26
			c-0.351,0.364-0.771,0.65-1.26,0.86c-0.49,0.21-1.016,0.315-1.575,0.315c-0.561,0-1.079-0.105-1.554-0.315
			c-0.477-0.21-0.896-0.496-1.261-0.86s-0.651-0.784-0.86-1.26c-0.211-0.477-0.315-0.994-0.315-1.555
			c0-0.56,0.104-1.085,0.315-1.575c0.209-0.489,0.496-0.909,0.86-1.26c0.364-0.35,0.784-0.63,1.261-0.84
			c0.475-0.21,0.993-0.315,1.554-0.315c1.119,0,2.064,0.386,2.835,1.155C213.206,79.61,213.59,80.555,213.59,81.675z"/>
		<path fill="#FFFFFF" d="M225.518,56.264l11.299,29.4h-8.568l-11.299-29.4H225.518z M216.95,85.665h10.543l-5.25-13.734
			L216.95,85.665z M236.817,56.264h-10.584l5.291,13.734L236.817,56.264z"/>
		<path fill="#FFFFFF" d="M259.202,56.348c0.056-0.084,0.133-0.111,0.23-0.084c0.099,0.028,0.119,0.099,0.063,0.21l-5.712,14.91
			v14.28h-7.98v-14.7l-5.627-14.7h7.967l4.304,11.215c0.111,0.252,0.271,0.462,0.479,0.63c0.209,0.168,0.467,0.252,0.773,0.252
			c0.308,0,0.566-0.084,0.777-0.252c0.21-0.168,0.371-0.378,0.482-0.63L259.202,56.348z"/>
		<path fill="#FFFFFF" d="M273.188,59.079c0.195-0.56,0.125-1.092-0.211-1.596s-0.826-0.784-1.47-0.841h-8.442
			c-0.084,0-0.125-0.063-0.125-0.188s0.041-0.189,0.125-0.189h19.74L272.557,82.85c-0.084,0.225-0.125,0.448-0.125,0.673
			c0,0.476,0.174,0.889,0.524,1.238c0.35,0.351,0.763,0.525,1.239,0.525h0.125h8.316c0.111,0,0.175,0.063,0.189,0.188
			c0.014,0.126-0.049,0.189-0.189,0.189H262.94L273.188,59.079z"/>
	</g>
	<path fill="#FFFFFF" d="M53.993,48.188v45.354h45.354V48.188H53.993z M88.46,80.586c0,6.029-5.941,9.045-11.881,9.045
		c-7.245,0-11.88-3.689-11.7-9.855h4.635c-0.135,3.465,3.376,5.311,7.065,5.355c3.42,0,7.064-1.395,7.064-4.545
		c0-3.105-2.834-4.814-6.975-4.814c-7.2,0-12.015-4.141-12.015-11.07c0-7.424,5.984-11.159,12.015-11.159
		c1.846,0,4.41,0.449,5.986,1.529l2.43-2.97l3.375,2.61l-2.656,3.104c1.846,2.161,2.701,4.141,2.701,6.885
		c0,3.914-1.936,7.109-5.895,8.639C87.154,74.871,88.46,77.929,88.46,80.586z"/>
</g>
</svg>
